<svg xmlns="http://www.w3.org/2000/svg" viewBox="-0.9 21 634.34 104.7" width="634" height="105" role="img" aria-label="AnyoneNear">
<g fill="#FFFFFF"><path d="M53.10 100L40.40 100L40.40 83.80L37.70 83.80L37.70 66.20Q37.70 62 35.70 59.90Q33.70 57.80 29.30 57.80L29.30 57.80Q27.10 57.80 23.50 57.90Q19.90 58 16.10 58.20Q12.30 58.40 9.20 58.60L9.20 58.60L9.20 45.10Q11.50 44.90 14.60 44.70Q17.70 44.50 21 44.40Q24.30 44.30 27.20 44.30L27.20 44.30Q35.60 44.30 41.35 46.70Q47.10 49.10 50.10 53.95Q53.10 58.80 53.10 66.40L53.10 66.40L53.10 100ZM22.90 101.40L22.90 101.40Q17 101.40 12.55 99.30Q8.10 97.20 5.60 93.25Q3.10 89.30 3.10 83.80L3.10 83.80Q3.10 77.80 6.20 73.95Q9.30 70.10 14.90 68.25Q20.50 66.40 27.80 66.40L27.80 66.40L39.50 66.40L39.50 75.30L27.70 75.30Q23.50 75.30 21.25 77.35Q19 79.40 19 82.90L19 82.90Q19 86.20 21.25 88.25Q23.50 90.30 27.70 90.30L27.70 90.30Q30.40 90.30 32.55 89.35Q34.70 88.40 36.10 86.10Q37.50 83.80 37.70 79.70L37.70 79.70L41.50 83.70Q41 89.40 38.75 93.30Q36.50 97.20 32.55 99.30Q28.60 101.40 22.90 101.40ZM80.70 100L64.70 100L64.70 45.20L77.40 45.20L77.40 68.70L76.50 68.70Q76.50 60.30 78.65 54.70Q80.80 49.10 85.20 46.30Q89.60 43.50 95.90 43.50L95.90 43.50L96.60 43.50Q106.20 43.50 111.25 49.75Q116.30 56 116.30 68.70L116.30 68.70L116.30 100L100.30 100L100.30 67.80Q100.30 63.40 97.70 60.60Q95.10 57.80 90.70 57.80L90.70 57.80Q86.20 57.80 83.45 60.65Q80.70 63.50 80.70 68.10L80.70 68.10L80.70 100ZM136.70 121.70L126.90 121.70L126.90 108.10L138.30 108.10Q140.90 108.10 142.70 107.45Q144.50 106.80 145.60 105.30Q146.70 103.80 147.40 101.20L147.40 101.20L160.90 45.20L176.10 45.20L160.80 104.40Q159.20 110.80 156.35 114.60Q153.50 118.40 148.75 120.05Q144 121.70 136.70 121.70L136.70 121.70ZM155.70 98.80L144.10 98.80L144.10 86.30L155.70 86.30L155.70 98.80ZM152.70 98.80L137.50 98.80L120.70 45.20L136.80 45.20L152.70 98.80ZM207.90 101.90L207.90 101.90Q200.70 101.90 195.10 99.65Q189.50 97.40 185.65 93.50Q181.80 89.60 179.80 84.55Q177.80 79.50 177.80 73.90L177.80 73.90L177.80 71.60Q177.80 65.90 179.85 60.75Q181.90 55.60 185.85 51.70Q189.80 47.80 195.40 45.55Q201.00 43.30 207.90 43.30L207.90 43.30Q215.00 43.30 220.55 45.55Q226.10 47.80 230.00 51.70Q233.90 55.60 236.00 60.75Q238.10 65.90 238.10 71.60L238.10 71.60L238.10 73.90Q238.10 79.50 236.10 84.55Q234.10 89.60 230.25 93.50Q226.40 97.40 220.80 99.65Q215.20 101.90 207.90 101.90ZM207.90 88.40L207.90 88.40Q212.60 88.40 215.70 86.40Q218.80 84.40 220.45 80.80Q222.10 77.20 222.10 72.80L222.10 72.80Q222.10 68.10 220.40 64.55Q218.70 61 215.55 58.90Q212.40 56.80 207.90 56.80L207.90 56.80Q203.50 56.80 200.30 58.90Q197.10 61 195.45 64.55Q193.80 68.10 193.80 72.80L193.80 72.80Q193.80 77.20 195.40 80.80Q197.00 84.40 200.20 86.40Q203.40 88.40 207.90 88.40ZM263.30 100L247.30 100L247.30 45.20L260 45.20L260 68.70L259.10 68.70Q259.10 60.30 261.25 54.70Q263.40 49.10 267.80 46.30Q272.20 43.50 278.50 43.50L278.50 43.50L279.20 43.50Q288.80 43.50 293.85 49.75Q298.90 56 298.90 68.70L298.90 68.70L298.90 100L282.90 100L282.90 67.80Q282.90 63.40 280.30 60.60Q277.70 57.80 273.30 57.80L273.30 57.80Q268.80 57.80 266.05 60.65Q263.30 63.50 263.30 68.10L263.30 68.10L263.30 100ZM335.60 101.90L335.60 101.90Q328.60 101.90 323.25 99.50Q317.90 97.10 314.35 93.05Q310.80 89 308.95 83.95Q307.10 78.90 307.10 73.60L307.10 73.60L307.10 71.60Q307.10 66.10 308.95 61.05Q310.80 56 314.30 52Q317.80 48 323.05 45.65Q328.30 43.30 335 43.30L335 43.30Q343.80 43.30 349.85 47.25Q355.90 51.20 359.10 57.55Q362.30 63.90 362.30 71.40L362.30 71.40L362.30 76.80L313.80 76.80L313.80 67.70L352.60 67.70L347.40 71.90Q347.40 67 346 63.50Q344.60 60 341.85 58.15Q339.10 56.30 335 56.30L335 56.30Q330.80 56.30 327.90 58.20Q325 60.10 323.50 63.75Q322 67.40 322 72.70L322 72.70Q322 77.60 323.40 81.25Q324.80 84.90 327.80 86.90Q330.80 88.90 335.60 88.90L335.60 88.90Q340 88.90 342.80 87.20Q345.60 85.50 346.60 83L346.60 83L361.30 83Q360.10 88.50 356.60 92.80Q353.10 97.10 347.80 99.50Q342.50 101.90 335.60 101.90Z"/><path d="M382.40 100L372.80 100L372.80 46.60L380.40 46.60L380.40 69.50L379.20 69.50Q379.20 61.60 381.35 56.15Q383.50 50.70 387.90 47.85Q392.30 45 399 45L399 45L399.40 45Q409.50 45 414.35 51.30Q419.20 57.60 419.20 69.50L419.20 69.50L419.20 100L409.60 100L409.60 67.50Q409.60 61.30 406.10 57.55Q402.60 53.80 396.50 53.80L396.50 53.80Q390.20 53.80 386.30 57.70Q382.40 61.60 382.40 68.10L382.40 68.10L382.40 100ZM457.50 101.80L457.50 101.80Q450.50 101.80 445.40 99.40Q440.30 97 437.10 93.05Q433.90 89.10 432.35 84.20Q430.80 79.30 430.80 74.20L430.80 74.20L430.80 72.40Q430.80 67.20 432.35 62.30Q433.90 57.40 437.10 53.45Q440.30 49.50 445.25 47.15Q450.20 44.80 456.90 44.80L456.90 44.80Q465.60 44.80 471.25 48.55Q476.90 52.30 479.65 58.20Q482.40 64.10 482.40 70.80L482.40 70.80L482.40 75.10L435 75.10L435 67.90L475.40 67.90L473.20 71.80Q473.20 66.10 471.40 61.95Q469.60 57.80 466 55.50Q462.40 53.20 456.90 53.20L456.90 53.20Q451.20 53.20 447.45 55.80Q443.70 58.40 441.85 62.90Q440 67.40 440 73.30L440 73.30Q440 79 441.85 83.55Q443.70 88.10 447.60 90.75Q451.50 93.40 457.50 93.40L457.50 93.40Q463.80 93.40 467.75 90.60Q471.70 87.80 472.50 84.10L472.50 84.10L481.50 84.10Q480.40 89.60 477.10 93.60Q473.80 97.60 468.80 99.70Q463.80 101.80 457.50 101.80ZM533.90 100L526.30 100L526.30 84L524.70 84L524.70 65.50Q524.70 60 521.85 57.20Q519 54.40 513.50 54.40L513.50 54.40Q510.40 54.40 507.10 54.50Q503.80 54.60 500.80 54.70Q497.80 54.80 495.60 55L495.60 55L495.60 46.60Q497.80 46.40 500.25 46.25Q502.70 46.10 505.30 46.05Q507.90 46 510.30 46L510.30 46Q518.50 46 523.70 47.95Q528.90 49.90 531.40 54.30Q533.90 58.70 533.90 66.20L533.90 66.20L533.90 100ZM508.80 101.40L508.80 101.40Q502.80 101.40 498.45 99.35Q494.10 97.30 491.75 93.40Q489.40 89.50 489.40 84L489.40 84Q489.40 78.30 491.95 74.50Q494.50 70.70 499.40 68.75Q504.30 66.80 511.20 66.80L511.20 66.80L525.70 66.80L525.70 74L510.80 74Q505 74 501.90 76.80Q498.80 79.60 498.80 84L498.80 84Q498.80 88.40 501.90 91.10Q505 93.80 510.80 93.80L510.80 93.80Q514.20 93.80 517.30 92.55Q520.40 91.30 522.45 88.35Q524.50 85.40 524.70 80.20L524.70 80.20L527.30 84Q526.80 89.70 524.55 93.55Q522.30 97.40 518.35 99.40Q514.40 101.40 508.80 101.40ZM559.10 100L549.50 100L549.50 46.60L557.10 46.60L557.10 68.60L556.70 68.60Q556.70 56.90 561.85 51.45Q567 46 577.30 46L577.30 46L579.10 46L579.10 54.60L575.70 54.60Q567.70 54.60 563.40 58.85Q559.10 63.10 559.10 71.10L559.10 71.10L559.10 100Z"/></g><g transform="translate(552.02 5.8) scale(1.20773)"><path d="M48 57 L48 52 C48 47.5 53.84 46.34 56.84 40.84 A12.5 12.5 0 1 0 36.25 27.72" fill="none" stroke="#FFFFFF" stroke-width="7.2" stroke-linecap="butt" stroke-linejoin="round"/><path d="M48 57 L48 56" stroke="#FFFFFF" stroke-width="7.2" stroke-linecap="round"/><g transform="translate(36.25 27.72) rotate(20)"><path d="M-3.6 -0.6 L3.6 -0.6 L5.2 4.6 L-5.2 4.6 Z" fill="#FFFFFF"/><rect x="-6" y="4" width="12" height="11" rx="1.5" fill="#FFFFFF"/><rect x="-4.35" y="10.6" width="1.5" height="3.8" rx="0.4" fill="#FF7A59"/><rect x="-1.95" y="10.6" width="1.5" height="3.8" rx="0.4" fill="#FF7A59"/><rect x="0.45" y="10.6" width="1.5" height="3.8" rx="0.4" fill="#FF7A59"/><rect x="2.85" y="10.6" width="1.5" height="3.8" rx="0.4" fill="#FF7A59"/></g><circle cx="48" cy="72" r="6" fill="#FF7A59"/></g>
</svg>
